<?xml version="1.0" standalone="no"?>
<!DOCTYPE svg PUBLIC "-//W3C//DTD SVG 20010904//EN"
 "http://www.w3.org/TR/2001/REC-SVG-20010904/DTD/svg10.dtd">
<svg version="1.0" xmlns="http://www.w3.org/2000/svg"
 width="200.000000pt" height="200.000000pt" viewBox="0 0 200.000000 200.000000"
 preserveAspectRatio="xMidYMid meet">

<g transform="translate(0.000000,200.000000) scale(0.100000,-0.100000)"
fill="#000000" stroke="none">
<path d="M619 1780 c-93 -50 -145 -154 -137 -274 12 -184 162 -302 303 -237
185 84 205 384 34 498 -55 36 -147 43 -200 13z"/>
<path d="M1203 1779 c-87 -43 -137 -133 -137 -249 0 -58 5 -87 23 -127 28 -63
95 -127 149 -144 109 -32 226 41 270 170 19 53 15 153 -8 215 -22 57 -87 128
-136 146 -43 17 -116 11 -161 -11z"/>
<path d="M240 1304 c-48 -21 -77 -50 -108 -109 -22 -42 -27 -63 -27 -130 0
-117 47 -212 129 -260 66 -39 123 -43 189 -12 90 41 137 124 137 241 0 83 -22
145 -73 202 -69 78 -164 104 -247 68z"/>
<path d="M1582 1299 c-159 -79 -192 -344 -58 -467 129 -119 308 -51 362 137
39 134 -23 291 -133 337 -48 21 -121 17 -171 -7z"/>
<path d="M892 1184 c-67 -33 -109 -85 -164 -204 -50 -105 -76 -138 -134 -168
-57 -30 -119 -98 -151 -167 -23 -50 -27 -73 -27 -140 0 -97 22 -153 84 -215
66 -66 117 -85 230 -85 89 0 100 2 174 38 43 20 88 37 101 37 13 0 58 -17 101
-38 74 -35 85 -37 174 -37 80 0 103 4 144 25 233 114 227 448 -12 582 -59 34
-97 82 -137 178 -64 152 -148 220 -274 220 -41 0 -71 -7 -109 -26z"/>
</g>
</svg>
